<svg width="160" height="36" xmlns="http://www.w3.org/2000/svg"><g fill-rule="nonzero" fill="none"><path d="M.427.047V35.5h158.578V.047H.427zM157.005 33.5h-81V2.047h81V33.5z" fill="#394149"/><path fill="#FFF" d="M8.856 23.713V11.926h4.068v8.648H20.1v3.139zM36.138 17.737c0 3.753-2.342 6.156-7.913 6.156-5.06 0-7.928-2.072-7.928-6.156 0-3.619 2.734-6.081 7.928-6.081 5.275 0 7.913 2.267 7.913 6.081zm-4.084.045c0-1.7-.706-3.063-3.844-3.063-2.868 0-3.8 1.216-3.8 3.063 0 1.877.855 3.093 3.813 3.093 2.977 0 3.831-1.291 3.831-3.093zM48.722 23.713l-.105-1.142a7.2 7.2 0 01-4.685 1.322c-2.507 0-4.595-.751-5.766-2.267a6.2 6.2 0 01-1.111-3.784 5.861 5.861 0 011.145-3.679c1.185-1.471 3.333-2.447 6.531-2.447 3.679 0 5.841 1.126 6.771 3.018.2.446.317.924.346 1.411h-3.892a1.6 1.6 0 00-.525-.751 4.138 4.138 0 00-2.628-.675 3.87 3.87 0 00-3.033.946 3.259 3.259 0 00-.615 2.207c-.054.75.147 1.496.57 2.117a3.945 3.945 0 003.108 1.036 4.34 4.34 0 003.093-.961c.187-.233.315-.507.375-.8h-4.188v-2.533h7.837v6.982h-3.228zM68.932 17.737c0 3.753-2.343 6.156-7.913 6.156-5.06 0-7.928-2.072-7.928-6.156 0-3.619 2.734-6.081 7.928-6.081 5.271 0 7.913 2.267 7.913 6.081zm-4.084.045c0-1.7-.706-3.063-3.844-3.063-2.868 0-3.8 1.216-3.8 3.063 0 1.877.856 3.093 3.813 3.093 2.976 0 3.831-1.291 3.831-3.093z"/><path fill="#394149" d="M82.857 23.668V11.881h2.9v11.787zM100.649 18.743c-.735.961-2 1.4-3.783 1.411-.376 0-5.361-.015-5.361-.015v3.529h-2.838V11.881h8.2c1.33-.14 2.656.29 3.648 1.186.648.844.963 1.897.886 2.958.066.965-.2 1.924-.752 2.718zM98.322 14.9c-.3-.45-.947-.7-2.042-.7h-4.79v3.588h4.759c1.171 0 1.788-.24 2.073-.706.17-.328.242-.698.21-1.066a2.279 2.279 0 00-.21-1.116zM109.764 23.848c-5.346 0-6.982-2-6.982-3.979h3.033c0 .976 1.336 1.712 4.084 1.712 2.732 0 3.453-.481 3.453-1.262 0-.871-.54-1.141-3.078-1.426-.5-.045-1.861-.21-2.372-.285-3.6-.406-4.986-1.472-4.986-3.379 0-2.012 2.028-3.528 6.427-3.528 4.775 0 6.607 1.877 6.607 3.829h-3c0-.991-1.126-1.562-3.784-1.562-2.733 0-3.318.375-3.318 1.111 0 .766.6 1.006 3.5 1.351.661.091 2.132.256 2.537.3 3.064.315 4.445 1.426 4.445 3.393-.005 2.343-2.107 3.725-6.566 3.725zM124.87 23.833c-3.918 0-6.471-1.547-6.471-4.8v-7.152h2.867v7.192c0 1.487 1.217 2.477 3.724 2.477 2.267 0 3.619-.93 3.619-2.477v-7.192h2.838V19.3c0 2.957-2.373 4.533-6.577 4.533zM146.987 23.668V15.8l-3.679 7.868h-2.792l-3.574-7.868v7.868h-2.7V11.881h3.658l4.054 8.979 4.144-8.979h3.6v11.787z"/></g></svg>